<svg t="1657862198889" class="icon" viewBox="0 0 1024 1024" version="1.1" xmlns="http://www.w3.org/2000/svg" p-id="4250" width="200" height="200"><path d="M121 400h111c30.6 0 55.5 24.8 55.5 55.5v222c0 30.6-24.8 55.5-55.5 55.5H121c-30.6 0-55.5-24.8-55.5-55.5v-222c0-30.7 24.8-55.5 55.5-55.5z m332.9-222h111c30.6 0 55.5 24.8 55.5 55.5v443.9c0 30.6-24.8 55.5-55.5 55.5h-111c-30.6 0-55.5-24.8-55.5-55.5V233.5c0-30.6 24.9-55.5 55.5-55.5zM786.8 67.1h111c30.6 0 55.5 21.3 55.5 47.6v570.8c0 26.2-24.9 47.5-55.5 47.5h-111c-30.6 0-55.5-21.3-55.5-47.5V114.6c0.1-26.2 24.9-47.5 55.5-47.5zM121 788.4h776.8c30.6 0 55.5 24.8 55.5 55.5v55.5c0 30.6-24.8 55.5-55.5 55.5H121c-30.6 0-55.5-24.8-55.5-55.5v-55.5c0-30.7 24.8-55.5 55.5-55.5z m0 0" p-id="4251"></path></svg>