<svg t="1657862116977" class="icon" viewBox="0 0 1078 1024" version="1.1" xmlns="http://www.w3.org/2000/svg" p-id="3070" width="200" height="200"><path d="M595.137263 563.33688l-43.331479-41.202236c-50.216953-47.562313-45.128892-39.819611-95.345845-87.354271l-16.591504-16.342632c-15.623667-13.439119-36.307742-34.814507-17.835868-62.660581a41.478761 41.478761 0 0 1 11.779968-11.918231c26.961195-17.006292 47.451703 12.028841 61.139694 23.836461 61.056736 59.591153 66.808458 63.877292 127.865194 123.468446l3.484216-3.760741 91.253274-91.944587c77.897113-78.422511 100.544517-101.540007 178.469283-179.962518l68.163431-68.799438a308.408415 308.408415 0 0 1 31.523858-30.970809A146.558289 146.558289 0 0 1 1010.063136 110.610029a37.800978 37.800978 0 0 1 37.579758 53.120467 68.329346 68.329346 0 0 1-20.711728 25.191434l-33.183009 34.067889c-102.314277 103.033242-149.600065 150.816775-252.052605 253.850018l-83.455267 84.118927M118.435689 0.525398h501.616484c40.040831 0 74.66177-6.055899 86.967135 23.006886a47.009263 47.009263 0 0 1 3.484216 25.329697c-5.530501 30.417758-23.089844 34.676244-58.761578 34.676244H184.110394c-27.652507 0-67.942211-4.092571-84.340147 7.576787-17.393427 12.360671-15.706624 32.906484-15.706625 62.328751v715.038536a92.165807 92.165807 0 0 0 9.318895 57.68313c11.061003 13.826254 30.998461 13.383814 56.13459 13.383814h775.486917c29.062785 0 49.442683 1.520888 61.665091-15.734277a151.037995 151.037995 0 0 0 7.549135-72.228349V545.860495c0-44.492884-5.281629-76.569793 27.348329-90.008911a34.814507 34.814507 0 0 1 17.448732-2.350463 38.907078 38.907078 0 0 1 34.62094 22.453836 108.148956 108.148956 0 0 1 3.484216 38.132807v331.830089a368.524966 368.524966 0 0 1-2.322811 76.32092 125.984824 125.984824 0 0 1-41.008668 69.131268 138.926197 138.926197 0 0 1-57.876698 29.145743 333.019146 333.019146 0 0 1-65.453485 2.018633H157.066242a268.063406 268.063406 0 0 1-58.761578-2.903513 127.450406 127.450406 0 0 1-92.19346-86.801221 276.525074 276.525074 0 0 1-4.949799-73.113229V169.454565l0.304178-56.217547a154.605169 154.605169 0 0 1 10.4803-38.160461A129.081904 129.081904 0 0 1 84.948503 7.521482a134.667711 134.667711 0 0 1 22.675056-5.834679z" p-id="3071"></path></svg>